<mxfile host="app.diagrams.net" agent="Mozilla/5.0 (Windows NT 10.0; Win64; x64) AppleWebKit/537.36 (KHTML, like Gecko) Chrome/134.0.0.0 Safari/537.36 OPR/119.0.0.0" version="27.1.5">
  <diagram name="Página-1" id="I-ztZd2EPsmNArWyhNXa">
    <mxGraphModel dx="3322" dy="2527" grid="1" gridSize="10" guides="1" tooltips="1" connect="1" arrows="1" fold="1" page="1" pageScale="1" pageWidth="827" pageHeight="1169" background="#FFFFFF" math="1" shadow="0">
      <root>
        <mxCell id="0" />
        <mxCell id="1" parent="0" />
        <mxCell id="3v4U03TZJgixhkDgXxJ5-12" style="edgeStyle=orthogonalEdgeStyle;rounded=0;orthogonalLoop=1;jettySize=auto;html=1;fontColor=light-dark(#000000,#FFFFFF);strokeColor=#36393d;dashed=1;labelBackgroundColor=none;fillColor=#cce5ff;" edge="1" parent="1" source="hzq5pYotCNsqqZJYM5mP-1" target="3v4U03TZJgixhkDgXxJ5-10">
          <mxGeometry relative="1" as="geometry" />
        </mxCell>
        <mxCell id="3v4U03TZJgixhkDgXxJ5-21" style="edgeStyle=orthogonalEdgeStyle;rounded=0;orthogonalLoop=1;jettySize=auto;html=1;fontColor=light-dark(#000000,#FFFFFF);strokeColor=#36393d;dashed=1;labelBackgroundColor=none;fillColor=#cce5ff;" edge="1" parent="1" source="hzq5pYotCNsqqZJYM5mP-1" target="3v4U03TZJgixhkDgXxJ5-20">
          <mxGeometry relative="1" as="geometry" />
        </mxCell>
        <mxCell id="3v4U03TZJgixhkDgXxJ5-48" style="edgeStyle=orthogonalEdgeStyle;rounded=0;orthogonalLoop=1;jettySize=auto;html=1;fontColor=light-dark(#000000,#FFFFFF);strokeColor=#36393d;dashed=1;labelBackgroundColor=none;fillColor=#cce5ff;" edge="1" parent="1" source="hzq5pYotCNsqqZJYM5mP-1" target="3v4U03TZJgixhkDgXxJ5-46">
          <mxGeometry relative="1" as="geometry" />
        </mxCell>
        <mxCell id="3v4U03TZJgixhkDgXxJ5-54" style="edgeStyle=orthogonalEdgeStyle;rounded=0;orthogonalLoop=1;jettySize=auto;html=1;fontColor=light-dark(#000000,#FFFFFF);strokeColor=#36393d;dashed=1;labelBackgroundColor=none;fillColor=#cce5ff;" edge="1" parent="1" source="hzq5pYotCNsqqZJYM5mP-1" target="3v4U03TZJgixhkDgXxJ5-53">
          <mxGeometry relative="1" as="geometry" />
        </mxCell>
        <mxCell id="3v4U03TZJgixhkDgXxJ5-62" style="edgeStyle=orthogonalEdgeStyle;rounded=0;orthogonalLoop=1;jettySize=auto;html=1;fontColor=light-dark(#000000,#FFFFFF);strokeColor=#36393d;dashed=1;labelBackgroundColor=none;fillColor=#cce5ff;" edge="1" parent="1" source="hzq5pYotCNsqqZJYM5mP-1" target="3v4U03TZJgixhkDgXxJ5-61">
          <mxGeometry relative="1" as="geometry" />
        </mxCell>
        <mxCell id="3v4U03TZJgixhkDgXxJ5-73" style="edgeStyle=orthogonalEdgeStyle;rounded=0;orthogonalLoop=1;jettySize=auto;html=1;fontColor=light-dark(#000000,#FFFFFF);strokeColor=#36393d;dashed=1;labelBackgroundColor=none;fillColor=#cce5ff;" edge="1" parent="1" source="hzq5pYotCNsqqZJYM5mP-1" target="3v4U03TZJgixhkDgXxJ5-72">
          <mxGeometry relative="1" as="geometry" />
        </mxCell>
        <mxCell id="3v4U03TZJgixhkDgXxJ5-85" style="edgeStyle=orthogonalEdgeStyle;rounded=0;orthogonalLoop=1;jettySize=auto;html=1;fontColor=light-dark(#000000,#FFFFFF);strokeColor=#36393d;dashed=1;labelBackgroundColor=none;fillColor=#cce5ff;" edge="1" parent="1" source="hzq5pYotCNsqqZJYM5mP-1" target="3v4U03TZJgixhkDgXxJ5-84">
          <mxGeometry relative="1" as="geometry" />
        </mxCell>
        <mxCell id="hzq5pYotCNsqqZJYM5mP-1" value="&lt;strong&gt;&lt;/strong&gt;&lt;p&gt;&lt;strong&gt;&lt;font style=&quot;font-size: 14px;&quot;&gt;Rentabilidad&lt;/font&gt;&lt;/strong&gt;&lt;/p&gt;" style="rounded=1;whiteSpace=wrap;html=1;strokeColor=#36393d;dashed=1;labelBackgroundColor=none;fillColor=#cce5ff;" parent="1" vertex="1">
          <mxGeometry x="470" y="470" width="120" height="60" as="geometry" />
        </mxCell>
        <mxCell id="3v4U03TZJgixhkDgXxJ5-8" style="edgeStyle=orthogonalEdgeStyle;rounded=0;orthogonalLoop=1;jettySize=auto;html=1;fontColor=light-dark(#000000,#FFFFFF);strokeColor=#36393d;dashed=1;labelBackgroundColor=none;fillColor=#cce5ff;" edge="1" parent="1" source="hzq5pYotCNsqqZJYM5mP-2" target="3v4U03TZJgixhkDgXxJ5-6">
          <mxGeometry relative="1" as="geometry" />
        </mxCell>
        <mxCell id="hzq5pYotCNsqqZJYM5mP-2" value="&lt;span style=&quot;line-height: 107%;&quot;&gt;&lt;font style=&quot;font-size: 12px;&quot;&gt;Debt-to-Equity Ratio (D/E)&lt;/font&gt;&lt;/span&gt;" style="rounded=1;whiteSpace=wrap;html=1;strokeColor=#36393d;dashed=1;labelBackgroundColor=none;fillColor=#ffcc99;" parent="1" vertex="1">
          <mxGeometry x="247.75" y="207.5" width="140" height="50" as="geometry" />
        </mxCell>
        <mxCell id="3v4U03TZJgixhkDgXxJ5-45" style="edgeStyle=orthogonalEdgeStyle;rounded=0;orthogonalLoop=1;jettySize=auto;html=1;fontColor=light-dark(#000000,#FFFFFF);strokeColor=#36393d;dashed=1;labelBackgroundColor=none;fillColor=#ffcc99;" edge="1" parent="1" source="hzq5pYotCNsqqZJYM5mP-4" target="3v4U03TZJgixhkDgXxJ5-44">
          <mxGeometry relative="1" as="geometry" />
        </mxCell>
        <mxCell id="hzq5pYotCNsqqZJYM5mP-4" value="&lt;span style=&quot;text-align: left;&quot;&gt;&lt;font style=&quot;font-size: 12px;&quot;&gt;$$D/E = \frac{\text{Total de deuda}}{\text{Patrimonio neto}}$$&lt;/font&gt;&lt;/span&gt;" style="rounded=1;whiteSpace=wrap;html=1;strokeColor=#36393d;dashed=1;labelBackgroundColor=none;fillColor=#ffcc99;" parent="1" vertex="1">
          <mxGeometry x="228.25" y="-32.5" width="179" height="70" as="geometry" />
        </mxCell>
        <mxCell id="3v4U03TZJgixhkDgXxJ5-9" style="edgeStyle=orthogonalEdgeStyle;rounded=0;orthogonalLoop=1;jettySize=auto;html=1;fontColor=light-dark(#000000,#FFFFFF);strokeColor=#36393d;dashed=1;labelBackgroundColor=none;fillColor=#cce5ff;" edge="1" parent="1" source="3v4U03TZJgixhkDgXxJ5-6" target="hzq5pYotCNsqqZJYM5mP-4">
          <mxGeometry relative="1" as="geometry" />
        </mxCell>
        <mxCell id="3v4U03TZJgixhkDgXxJ5-6" value="&lt;span style=&quot;line-height: 107%;&quot;&gt;&lt;font style=&quot;font-size: 12px;&quot;&gt;Relación deuda-patrimonio, que compara la deuda de la empresa con su patrimonio neto&lt;/font&gt;&lt;/span&gt;" style="rounded=1;whiteSpace=wrap;html=1;strokeColor=#36393d;dashed=1;labelBackgroundColor=none;fillColor=#ffcc99;" vertex="1" parent="1">
          <mxGeometry x="242.75" y="97.5" width="150" height="70" as="geometry" />
        </mxCell>
        <mxCell id="3v4U03TZJgixhkDgXxJ5-14" style="edgeStyle=orthogonalEdgeStyle;rounded=0;orthogonalLoop=1;jettySize=auto;html=1;fontColor=light-dark(#000000,#FFFFFF);strokeColor=#36393d;dashed=1;labelBackgroundColor=none;fillColor=#cce5ff;" edge="1" parent="1" source="3v4U03TZJgixhkDgXxJ5-10" target="3v4U03TZJgixhkDgXxJ5-13">
          <mxGeometry relative="1" as="geometry" />
        </mxCell>
        <mxCell id="3v4U03TZJgixhkDgXxJ5-10" value="&lt;span style=&quot;line-height: 107%;&quot;&gt;&lt;font style=&quot;font-size: 12px;&quot;&gt;Return on Equity (ROE)&amp;nbsp;&lt;/font&gt;&lt;/span&gt;" style="rounded=1;whiteSpace=wrap;html=1;strokeColor=#36393d;dashed=1;labelBackgroundColor=none;fillColor=#cce5ff;" vertex="1" parent="1">
          <mxGeometry x="29" y="257.5" width="110" height="55" as="geometry" />
        </mxCell>
        <mxCell id="3v4U03TZJgixhkDgXxJ5-19" style="edgeStyle=orthogonalEdgeStyle;rounded=0;orthogonalLoop=1;jettySize=auto;html=1;fontColor=light-dark(#000000,#FFFFFF);strokeColor=#36393d;dashed=1;labelBackgroundColor=none;fillColor=#cce5ff;" edge="1" parent="1" source="3v4U03TZJgixhkDgXxJ5-13" target="3v4U03TZJgixhkDgXxJ5-18">
          <mxGeometry relative="1" as="geometry" />
        </mxCell>
        <mxCell id="3v4U03TZJgixhkDgXxJ5-110" value="" style="edgeStyle=orthogonalEdgeStyle;rounded=0;orthogonalLoop=1;jettySize=auto;html=1;dashed=1;" edge="1" parent="1" source="3v4U03TZJgixhkDgXxJ5-13" target="3v4U03TZJgixhkDgXxJ5-18">
          <mxGeometry relative="1" as="geometry" />
        </mxCell>
        <mxCell id="3v4U03TZJgixhkDgXxJ5-13" value="&lt;p class=&quot;MsoNormal&quot; style=&quot;margin-top: 0cm; margin-right: 0cm; margin-bottom: 0cm; text-indent: -21.3pt;&quot;&gt;&lt;span style=&quot;&quot;&gt;&lt;span style=&quot;white-space: pre;&quot;&gt;&#x9;&lt;/span&gt;Retorno sobre el patrimonio, que mide la rentabilidad de una empresa en relación con el patrimonio de los accionistas.&lt;/span&gt;&lt;/p&gt;" style="rounded=1;whiteSpace=wrap;html=1;align=center;strokeColor=#36393d;dashed=1;labelBackgroundColor=none;fillColor=#cce5ff;" vertex="1" parent="1">
          <mxGeometry x="-5" y="97.5" width="190" height="80" as="geometry" />
        </mxCell>
        <mxCell id="3v4U03TZJgixhkDgXxJ5-35" style="edgeStyle=orthogonalEdgeStyle;rounded=0;orthogonalLoop=1;jettySize=auto;html=1;fontColor=light-dark(#000000,#FFFFFF);strokeColor=#36393d;dashed=1;labelBackgroundColor=none;fillColor=#cce5ff;" edge="1" parent="1" source="3v4U03TZJgixhkDgXxJ5-18" target="3v4U03TZJgixhkDgXxJ5-33">
          <mxGeometry relative="1" as="geometry" />
        </mxCell>
        <mxCell id="3v4U03TZJgixhkDgXxJ5-37" style="edgeStyle=orthogonalEdgeStyle;rounded=0;orthogonalLoop=1;jettySize=auto;html=1;fontColor=light-dark(#000000,#FFFFFF);strokeColor=#36393d;dashed=1;labelBackgroundColor=none;fillColor=#cce5ff;" edge="1" parent="1" source="3v4U03TZJgixhkDgXxJ5-18" target="3v4U03TZJgixhkDgXxJ5-36">
          <mxGeometry relative="1" as="geometry" />
        </mxCell>
        <mxCell id="3v4U03TZJgixhkDgXxJ5-18" value="&lt;span style=&quot;text-align: left;&quot;&gt;&lt;font style=&quot;font-size: 12px;&quot;&gt;$$ROE = \frac{\text{Utilidad neta}}{\text{Patrimonio neto}}\times 100$$&lt;/font&gt;&lt;/span&gt;" style="rounded=1;whiteSpace=wrap;html=1;strokeColor=#36393d;dashed=1;labelBackgroundColor=none;fillColor=#cce5ff;" vertex="1" parent="1">
          <mxGeometry x="-11.5" y="-32.5" width="203" height="70" as="geometry" />
        </mxCell>
        <mxCell id="3v4U03TZJgixhkDgXxJ5-24" style="edgeStyle=orthogonalEdgeStyle;rounded=0;orthogonalLoop=1;jettySize=auto;html=1;fontColor=light-dark(#000000,#FFFFFF);strokeColor=#36393d;dashed=1;labelBackgroundColor=none;fillColor=#cce5ff;" edge="1" parent="1" source="3v4U03TZJgixhkDgXxJ5-20" target="3v4U03TZJgixhkDgXxJ5-22">
          <mxGeometry relative="1" as="geometry" />
        </mxCell>
        <mxCell id="3v4U03TZJgixhkDgXxJ5-20" value="&lt;span style=&quot;line-height: 107%;&quot;&gt;&lt;font style=&quot;font-size: 12px;&quot;&gt;Return on Assets (ROA)&lt;/font&gt;&lt;/span&gt;&lt;span style=&quot;font-size: 11pt; line-height: 107%;&quot;&gt;&amp;nbsp;&lt;/span&gt;" style="rounded=1;whiteSpace=wrap;html=1;strokeColor=#36393d;dashed=1;labelBackgroundColor=none;fillColor=#cce5ff;" vertex="1" parent="1">
          <mxGeometry x="1320" y="207.5" width="100" height="50" as="geometry" />
        </mxCell>
        <mxCell id="3v4U03TZJgixhkDgXxJ5-26" style="edgeStyle=orthogonalEdgeStyle;rounded=0;orthogonalLoop=1;jettySize=auto;html=1;fontColor=light-dark(#000000,#FFFFFF);strokeColor=#36393d;dashed=1;labelBackgroundColor=none;fillColor=#cce5ff;" edge="1" parent="1" source="3v4U03TZJgixhkDgXxJ5-22" target="3v4U03TZJgixhkDgXxJ5-25">
          <mxGeometry relative="1" as="geometry" />
        </mxCell>
        <mxCell id="3v4U03TZJgixhkDgXxJ5-22" value="&lt;span style=&quot;font-size: 11pt; line-height: 107%;&quot;&gt;Retorno sobre activos, que mide la eficiencia de una empresa en la utilización de sus activos para generar ganancias.&lt;/span&gt;" style="rounded=1;whiteSpace=wrap;html=1;align=center;strokeColor=#36393d;dashed=1;labelBackgroundColor=none;fillColor=#cce5ff;" vertex="1" parent="1">
          <mxGeometry x="1260" y="32.5" width="220" height="80" as="geometry" />
        </mxCell>
        <mxCell id="3v4U03TZJgixhkDgXxJ5-42" style="edgeStyle=orthogonalEdgeStyle;rounded=0;orthogonalLoop=1;jettySize=auto;html=1;fontColor=light-dark(#000000,#FFFFFF);strokeColor=#36393d;dashed=1;labelBackgroundColor=none;fillColor=#cce5ff;" edge="1" parent="1" source="3v4U03TZJgixhkDgXxJ5-25" target="3v4U03TZJgixhkDgXxJ5-38">
          <mxGeometry relative="1" as="geometry" />
        </mxCell>
        <mxCell id="3v4U03TZJgixhkDgXxJ5-43" style="edgeStyle=orthogonalEdgeStyle;rounded=0;orthogonalLoop=1;jettySize=auto;html=1;fontColor=light-dark(#000000,#FFFFFF);strokeColor=#36393d;dashed=1;labelBackgroundColor=none;fillColor=#cce5ff;" edge="1" parent="1" source="3v4U03TZJgixhkDgXxJ5-25" target="3v4U03TZJgixhkDgXxJ5-40">
          <mxGeometry relative="1" as="geometry" />
        </mxCell>
        <mxCell id="3v4U03TZJgixhkDgXxJ5-25" value="&lt;span style=&quot;text-align: left;&quot;&gt;&lt;font style=&quot;font-size: 12px;&quot;&gt;$$ROA = \frac{\text{Utilidad neta}}{\text{Total de activos}}\times 100$$&lt;/font&gt;&lt;/span&gt;" style="rounded=1;whiteSpace=wrap;html=1;strokeColor=#36393d;dashed=1;labelBackgroundColor=none;fillColor=#cce5ff;" vertex="1" parent="1">
          <mxGeometry x="1268.5" y="-92.5" width="203" height="70" as="geometry" />
        </mxCell>
        <mxCell id="3v4U03TZJgixhkDgXxJ5-52" style="edgeStyle=orthogonalEdgeStyle;rounded=0;orthogonalLoop=1;jettySize=auto;html=1;fontColor=light-dark(#000000,#FFFFFF);strokeColor=#36393d;dashed=1;labelBackgroundColor=none;fillColor=#cce5ff;" edge="1" parent="1" source="3v4U03TZJgixhkDgXxJ5-27" target="3v4U03TZJgixhkDgXxJ5-51">
          <mxGeometry relative="1" as="geometry" />
        </mxCell>
        <mxCell id="3v4U03TZJgixhkDgXxJ5-27" value="&lt;span style=&quot;text-align: left;&quot;&gt;&lt;font style=&quot;font-size: 12px;&quot;&gt;$$\text{Margen Operativo} = \frac{\text{Utilidad Operativa}}{\text{Ingresos Totales}} \times 100$$&lt;/font&gt;&lt;/span&gt;" style="rounded=1;whiteSpace=wrap;html=1;strokeColor=#36393d;dashed=1;labelBackgroundColor=none;fillColor=#cce5ff;" vertex="1" parent="1">
          <mxGeometry x="49.5" y="730" width="341" height="60" as="geometry" />
        </mxCell>
        <mxCell id="3v4U03TZJgixhkDgXxJ5-33" value="&lt;p class=&quot;MsoNormal&quot; style=&quot;margin-bottom:0cm;line-height:normal&quot;&gt;&lt;font face=&quot;Helvetica&quot; style=&quot;font-size: 12px;&quot;&gt;10% - 15%&amp;nbsp;Indica una rentabilidad saludable y sostenible.&lt;/font&gt;&lt;/p&gt;" style="rounded=1;whiteSpace=wrap;html=1;align=center;strokeColor=#36393d;dashed=1;labelBackgroundColor=none;fillColor=#cce5ff;" vertex="1" parent="1">
          <mxGeometry x="-90" y="-162.5" width="130" height="60" as="geometry" />
        </mxCell>
        <mxCell id="3v4U03TZJgixhkDgXxJ5-36" value="&lt;p class=&quot;MsoNormal&quot; style=&quot;margin-bottom:0cm;line-height:normal&quot;&gt;&lt;font face=&quot;Helvetica&quot; style=&quot;font-size: 12px;&quot;&gt;10% puede ser preocupante, ya que sugiere que la empresa no está utilizando eficientemente el capital de los accionistas para generar ganancias.&lt;/font&gt;&lt;/p&gt;" style="rounded=1;whiteSpace=wrap;html=1;align=center;strokeColor=#36393d;dashed=1;labelBackgroundColor=none;fillColor=#cce5ff;" vertex="1" parent="1">
          <mxGeometry x="70" y="-177.5" width="175" height="90" as="geometry" />
        </mxCell>
        <mxCell id="3v4U03TZJgixhkDgXxJ5-38" value="&lt;p class=&quot;MsoNormal&quot; style=&quot;margin-bottom:0cm;line-height:normal&quot;&gt;&lt;font style=&quot;font-size: 12px;&quot;&gt;5%-10% Indica que la empresa está utilizando eficientemente sus activos para generar ganancias.&lt;/font&gt;&lt;/p&gt;" style="rounded=1;whiteSpace=wrap;html=1;align=center;strokeColor=#36393d;dashed=1;labelBackgroundColor=none;fillColor=#cce5ff;" vertex="1" parent="1">
          <mxGeometry x="1150" y="-267.5" width="150" height="75" as="geometry" />
        </mxCell>
        <mxCell id="3v4U03TZJgixhkDgXxJ5-40" value="&lt;p class=&quot;MsoNormal&quot; style=&quot;margin-bottom:0cm;line-height:normal&quot;&gt;&lt;font face=&quot;Helvetica&quot; style=&quot;font-size: 12px;&quot;&gt;Menor al 5% puede sugerir problemas de eficiencia&lt;br&gt;operativa o una estructura de activos poco rentable.&lt;/font&gt;&lt;/p&gt;" style="rounded=1;whiteSpace=wrap;html=1;align=center;strokeColor=#36393d;dashed=1;labelBackgroundColor=none;fillColor=#cce5ff;" vertex="1" parent="1">
          <mxGeometry x="1390" y="-267.5" width="150" height="75" as="geometry" />
        </mxCell>
        <mxCell id="3v4U03TZJgixhkDgXxJ5-44" value="&lt;p style=&quot;margin-bottom:0cm;line-height:normal&quot; class=&quot;MsoNormal&quot;&gt;&lt;span style=&quot;font-family: Helvetica, sans-serif;&quot;&gt;&lt;font style=&quot;font-size: 12px;&quot;&gt;La interpretación depende del sector: industrias con alta inversión en activos (como manufactura) suelen tener ratios más altos que sectores con menos necesidad de financiamiento externo (como tecnología).&lt;/font&gt;&lt;/span&gt;&lt;/p&gt;" style="rounded=1;whiteSpace=wrap;html=1;align=center;strokeColor=#36393d;dashed=1;labelBackgroundColor=none;fillColor=#ffcc99;" vertex="1" parent="1">
          <mxGeometry x="205.5" y="-302.5" width="224.5" height="110" as="geometry" />
        </mxCell>
        <mxCell id="3v4U03TZJgixhkDgXxJ5-49" style="edgeStyle=orthogonalEdgeStyle;rounded=0;orthogonalLoop=1;jettySize=auto;html=1;fontColor=light-dark(#000000,#FFFFFF);strokeColor=#36393d;dashed=1;labelBackgroundColor=none;fillColor=#cce5ff;" edge="1" parent="1" source="3v4U03TZJgixhkDgXxJ5-46" target="3v4U03TZJgixhkDgXxJ5-47">
          <mxGeometry relative="1" as="geometry" />
        </mxCell>
        <mxCell id="3v4U03TZJgixhkDgXxJ5-46" value="&lt;span style=&quot;line-height: 107%; font-family: Helvetica, sans-serif;&quot;&gt;&lt;font style=&quot;font-size: 12px;&quot;&gt;Operating Margin&lt;/font&gt;&lt;/span&gt;" style="rounded=1;whiteSpace=wrap;html=1;strokeColor=#36393d;dashed=1;labelBackgroundColor=none;fillColor=#cce5ff;" vertex="1" parent="1">
          <mxGeometry x="175" y="535" width="90" height="50" as="geometry" />
        </mxCell>
        <mxCell id="3v4U03TZJgixhkDgXxJ5-50" style="edgeStyle=orthogonalEdgeStyle;rounded=0;orthogonalLoop=1;jettySize=auto;html=1;fontColor=light-dark(#000000,#FFFFFF);strokeColor=#36393d;dashed=1;labelBackgroundColor=none;fillColor=#cce5ff;" edge="1" parent="1" source="3v4U03TZJgixhkDgXxJ5-47" target="3v4U03TZJgixhkDgXxJ5-27">
          <mxGeometry relative="1" as="geometry" />
        </mxCell>
        <mxCell id="3v4U03TZJgixhkDgXxJ5-47" value="&lt;p class=&quot;MsoNormal&quot; style=&quot;margin-bottom: 0cm; border: none;&quot;&gt;&lt;span style=&quot;line-height: 107%; font-family: Helvetica, sans-serif;&quot;&gt;&lt;font style=&quot;font-size: 12px;&quot;&gt;Margen operativo, que muestra la eficiencia de una empresa en la generación de ganancias a partir de sus operaciones.&lt;/font&gt;&lt;/span&gt;&lt;/p&gt;" style="rounded=1;whiteSpace=wrap;html=1;align=center;strokeColor=#36393d;dashed=1;labelBackgroundColor=none;fillColor=#cce5ff;" vertex="1" parent="1">
          <mxGeometry x="120" y="610" width="200" height="80" as="geometry" />
        </mxCell>
        <mxCell id="3v4U03TZJgixhkDgXxJ5-51" value="&lt;p class=&quot;MsoNormal&quot; style=&quot;margin-bottom:0cm;line-height:normal&quot;&gt;&lt;span style=&quot;font-family: Helvetica, sans-serif;&quot;&gt;&lt;font style=&quot;font-size: 12px;&quot;&gt;La interpretación depende del sector: industrias con altos costos fijos (como manufactura) suelen tener márgenes más bajos que sectores con menos costos operativos (como tecnología o servicios)&lt;/font&gt;&lt;/span&gt;&lt;/p&gt;" style="rounded=1;whiteSpace=wrap;html=1;align=center;strokeColor=#36393d;dashed=1;labelBackgroundColor=none;fillColor=#cce5ff;" vertex="1" parent="1">
          <mxGeometry x="80" y="860" width="280" height="90" as="geometry" />
        </mxCell>
        <mxCell id="3v4U03TZJgixhkDgXxJ5-56" style="edgeStyle=orthogonalEdgeStyle;rounded=0;orthogonalLoop=1;jettySize=auto;html=1;fontColor=light-dark(#000000,#FFFFFF);strokeColor=#36393d;dashed=1;labelBackgroundColor=none;fillColor=#cce5ff;" edge="1" parent="1" source="3v4U03TZJgixhkDgXxJ5-53" target="3v4U03TZJgixhkDgXxJ5-55">
          <mxGeometry relative="1" as="geometry" />
        </mxCell>
        <mxCell id="3v4U03TZJgixhkDgXxJ5-53" value="&lt;span style=&quot;line-height: 107%; font-family: Helvetica, sans-serif;&quot;&gt;&lt;font style=&quot;font-size: 12px;&quot;&gt;Net Profit Margin&lt;/font&gt;&lt;/span&gt;" style="rounded=1;whiteSpace=wrap;html=1;strokeColor=#36393d;dashed=1;labelBackgroundColor=none;fillColor=#cce5ff;" vertex="1" parent="1">
          <mxGeometry x="485" y="570" width="90" height="40" as="geometry" />
        </mxCell>
        <mxCell id="3v4U03TZJgixhkDgXxJ5-58" style="edgeStyle=orthogonalEdgeStyle;rounded=0;orthogonalLoop=1;jettySize=auto;html=1;fontColor=light-dark(#000000,#FFFFFF);strokeColor=#36393d;dashed=1;labelBackgroundColor=none;fillColor=#cce5ff;" edge="1" parent="1" source="3v4U03TZJgixhkDgXxJ5-55" target="3v4U03TZJgixhkDgXxJ5-57">
          <mxGeometry relative="1" as="geometry" />
        </mxCell>
        <mxCell id="3v4U03TZJgixhkDgXxJ5-55" value="&lt;p class=&quot;MsoNormal&quot; style=&quot;margin-bottom: 0cm; border: none;&quot;&gt;&lt;span style=&quot;line-height: 107%;&quot;&gt;&lt;font style=&quot;font-size: 12px;&quot;&gt;Margen de beneficio neto, que representa el porcentaje de las ventas que se convierte en ganancia neta.&lt;/font&gt;&lt;/span&gt;&lt;/p&gt;" style="rounded=1;whiteSpace=wrap;html=1;align=center;strokeColor=#36393d;dashed=1;labelBackgroundColor=none;fillColor=#cce5ff;" vertex="1" parent="1">
          <mxGeometry x="443.5" y="650" width="173" height="80" as="geometry" />
        </mxCell>
        <mxCell id="3v4U03TZJgixhkDgXxJ5-60" style="edgeStyle=orthogonalEdgeStyle;rounded=0;orthogonalLoop=1;jettySize=auto;html=1;fontColor=light-dark(#000000,#FFFFFF);strokeColor=#36393d;dashed=1;labelBackgroundColor=none;fillColor=#cce5ff;" edge="1" parent="1" source="3v4U03TZJgixhkDgXxJ5-57" target="3v4U03TZJgixhkDgXxJ5-59">
          <mxGeometry relative="1" as="geometry" />
        </mxCell>
        <mxCell id="3v4U03TZJgixhkDgXxJ5-57" value="&lt;span style=&quot;text-align: left;&quot;&gt;&lt;font style=&quot;font-size: 12px;&quot;&gt;$$\text{Margen de Beneficio Neto} = \frac{\text{Beneficio Neto}}{\text{Ingresos Totales}} \times 100$$&lt;/font&gt;&lt;/span&gt;" style="rounded=1;whiteSpace=wrap;html=1;strokeColor=#36393d;dashed=1;labelBackgroundColor=none;fillColor=#cce5ff;" vertex="1" parent="1">
          <mxGeometry x="365" y="800" width="330" height="70" as="geometry" />
        </mxCell>
        <mxCell id="3v4U03TZJgixhkDgXxJ5-59" value="&lt;p class=&quot;MsoNormal&quot; style=&quot;margin-bottom:0cm;line-height:normal&quot;&gt;La interpretación depende del sector: industrias con altos costos fijos (como manufactura) suelen tener márgenes más bajos que sectores con menos costos operativos (como tecnología o servicios).&lt;/p&gt;" style="rounded=1;whiteSpace=wrap;html=1;align=center;strokeColor=#36393d;dashed=1;labelBackgroundColor=none;fillColor=#cce5ff;" vertex="1" parent="1">
          <mxGeometry x="389" y="930" width="280" height="90" as="geometry" />
        </mxCell>
        <mxCell id="3v4U03TZJgixhkDgXxJ5-65" style="edgeStyle=orthogonalEdgeStyle;rounded=0;orthogonalLoop=1;jettySize=auto;html=1;fontColor=light-dark(#000000,#FFFFFF);strokeColor=#36393d;dashed=1;labelBackgroundColor=none;fillColor=#cce5ff;" edge="1" parent="1" source="3v4U03TZJgixhkDgXxJ5-61" target="3v4U03TZJgixhkDgXxJ5-64">
          <mxGeometry relative="1" as="geometry" />
        </mxCell>
        <mxCell id="3v4U03TZJgixhkDgXxJ5-61" value="&lt;span style=&quot;line-height: 107%;&quot;&gt;&lt;font style=&quot;font-size: 12px;&quot;&gt;Earnings Before Interest and Taxes (EBIT)&lt;/font&gt;&lt;/span&gt;" style="rounded=1;whiteSpace=wrap;html=1;strokeColor=#36393d;dashed=1;labelBackgroundColor=none;fillColor=#cce5ff;" vertex="1" parent="1">
          <mxGeometry x="900" y="545.63" width="130" height="50" as="geometry" />
        </mxCell>
        <mxCell id="3v4U03TZJgixhkDgXxJ5-67" style="edgeStyle=orthogonalEdgeStyle;rounded=0;orthogonalLoop=1;jettySize=auto;html=1;fontColor=light-dark(#000000,#FFFFFF);strokeColor=#36393d;dashed=1;labelBackgroundColor=none;fillColor=#cce5ff;" edge="1" parent="1" source="3v4U03TZJgixhkDgXxJ5-64" target="3v4U03TZJgixhkDgXxJ5-66">
          <mxGeometry relative="1" as="geometry" />
        </mxCell>
        <mxCell id="3v4U03TZJgixhkDgXxJ5-64" value="&lt;p class=&quot;MsoNormal&quot; style=&quot;margin-bottom: 0cm; border: none;&quot;&gt;&lt;span style=&quot;line-height: 107%; font-family: Helvetica, sans-serif;&quot;&gt;&lt;font style=&quot;font-size: 12px;&quot;&gt;Ganancias antes de intereses e impuestos, que reflejan la capacidad de una empresa para generar ganancias a partir de sus operaciones principales, excluyendo los costos financieros e impositivos.&lt;/font&gt;&lt;/span&gt;&lt;/p&gt;" style="rounded=1;whiteSpace=wrap;html=1;align=center;strokeColor=#36393d;dashed=1;labelBackgroundColor=none;fillColor=#cce5ff;" vertex="1" parent="1">
          <mxGeometry x="875" y="630" width="180" height="120" as="geometry" />
        </mxCell>
        <mxCell id="3v4U03TZJgixhkDgXxJ5-69" style="edgeStyle=orthogonalEdgeStyle;rounded=0;orthogonalLoop=1;jettySize=auto;html=1;fontColor=light-dark(#000000,#FFFFFF);strokeColor=#36393d;dashed=1;labelBackgroundColor=none;fillColor=#cce5ff;" edge="1" parent="1" source="3v4U03TZJgixhkDgXxJ5-66" target="3v4U03TZJgixhkDgXxJ5-68">
          <mxGeometry relative="1" as="geometry" />
        </mxCell>
        <mxCell id="3v4U03TZJgixhkDgXxJ5-71" style="edgeStyle=orthogonalEdgeStyle;rounded=0;orthogonalLoop=1;jettySize=auto;html=1;fontColor=light-dark(#000000,#FFFFFF);strokeColor=#36393d;dashed=1;labelBackgroundColor=none;fillColor=#cce5ff;" edge="1" parent="1" source="3v4U03TZJgixhkDgXxJ5-66" target="3v4U03TZJgixhkDgXxJ5-70">
          <mxGeometry relative="1" as="geometry" />
        </mxCell>
        <mxCell id="3v4U03TZJgixhkDgXxJ5-77" style="edgeStyle=orthogonalEdgeStyle;rounded=0;orthogonalLoop=1;jettySize=auto;html=1;fontColor=light-dark(#000000,#FFFFFF);strokeColor=#36393d;dashed=1;labelBackgroundColor=none;fillColor=#cce5ff;" edge="1" parent="1" source="3v4U03TZJgixhkDgXxJ5-66" target="3v4U03TZJgixhkDgXxJ5-76">
          <mxGeometry relative="1" as="geometry" />
        </mxCell>
        <mxCell id="3v4U03TZJgixhkDgXxJ5-66" value="&lt;span style=&quot;text-align: left;&quot;&gt;&lt;font style=&quot;font-size: 12px;&quot;&gt;$$EBIT =\text{Ingresos Totales} - \text{Costos Operativos}$$&lt;/font&gt;&lt;/span&gt;" style="rounded=1;whiteSpace=wrap;html=1;strokeColor=#36393d;dashed=1;labelBackgroundColor=none;fillColor=#cce5ff;" vertex="1" parent="1">
          <mxGeometry x="810" y="830" width="310" height="40" as="geometry" />
        </mxCell>
        <mxCell id="3v4U03TZJgixhkDgXxJ5-68" value="&lt;p class=&quot;MsoNormal&quot; style=&quot;margin-bottom:0cm;line-height:normal&quot;&gt;&lt;span style=&quot;font-size:12.0pt;line-height:107%;&lt;br/&gt;font-family:&amp;quot;Helvetica&amp;quot;,sans-serif;mso-fareast-font-family:&amp;quot;Times New Roman&amp;quot;;&lt;br/&gt;mso-bidi-font-family:&amp;quot;Times New Roman&amp;quot;;mso-ansi-language:ES-CO;mso-fareast-language:&lt;br/&gt;ES-CO;mso-bidi-language:AR-SA&quot;&gt;Positivo indica que la empresa está generando ganancias a partir de sus operaciones principales&lt;/span&gt;&lt;/p&gt;" style="rounded=1;whiteSpace=wrap;html=1;align=center;strokeColor=#36393d;dashed=1;labelBackgroundColor=none;fillColor=#cce5ff;" vertex="1" parent="1">
          <mxGeometry x="710" y="1000" width="280" height="90" as="geometry" />
        </mxCell>
        <mxCell id="3v4U03TZJgixhkDgXxJ5-70" value="&lt;p class=&quot;MsoNormal&quot; style=&quot;margin-bottom:0cm;line-height:normal&quot;&gt;&lt;span style=&quot;font-size:12.0pt;font-family:&amp;quot;Helvetica&amp;quot;,sans-serif;mso-fareast-font-family:&lt;br/&gt;&amp;quot;Times New Roman&amp;quot;;mso-bidi-font-family:&amp;quot;Times New Roman&amp;quot;&quot;&gt;Negativo sugiere que los costos operativos superan los ingresos, lo que puede ser una señal de problemas financieros.&lt;/span&gt;&lt;/p&gt;" style="rounded=1;whiteSpace=wrap;html=1;align=center;strokeColor=#36393d;dashed=1;labelBackgroundColor=none;fillColor=#cce5ff;" vertex="1" parent="1">
          <mxGeometry x="1010" y="1000" width="300" height="90" as="geometry" />
        </mxCell>
        <mxCell id="3v4U03TZJgixhkDgXxJ5-75" style="edgeStyle=orthogonalEdgeStyle;rounded=0;orthogonalLoop=1;jettySize=auto;html=1;fontColor=light-dark(#000000,#FFFFFF);strokeColor=#36393d;dashed=1;labelBackgroundColor=none;fillColor=#cce5ff;" edge="1" parent="1" source="3v4U03TZJgixhkDgXxJ5-72" target="3v4U03TZJgixhkDgXxJ5-74">
          <mxGeometry relative="1" as="geometry" />
        </mxCell>
        <mxCell id="3v4U03TZJgixhkDgXxJ5-72" value="&lt;span style=&quot;line-height: 107%; font-family: Helvetica, sans-serif;&quot;&gt;&lt;font style=&quot;font-size: 12px;&quot;&gt;Earnings Before Interest, Taxes, Depreciation, and Amortization (EBITDA)&lt;/font&gt;&lt;/span&gt;" style="rounded=1;whiteSpace=wrap;html=1;strokeColor=#36393d;dashed=1;labelBackgroundColor=none;fillColor=#cce5ff;" vertex="1" parent="1">
          <mxGeometry x="1140" y="560" width="110" height="80" as="geometry" />
        </mxCell>
        <mxCell id="3v4U03TZJgixhkDgXxJ5-78" style="edgeStyle=orthogonalEdgeStyle;rounded=0;orthogonalLoop=1;jettySize=auto;html=1;fontColor=light-dark(#000000,#FFFFFF);strokeColor=#36393d;dashed=1;labelBackgroundColor=none;fillColor=#cce5ff;" edge="1" parent="1" source="3v4U03TZJgixhkDgXxJ5-74" target="3v4U03TZJgixhkDgXxJ5-76">
          <mxGeometry relative="1" as="geometry" />
        </mxCell>
        <mxCell id="3v4U03TZJgixhkDgXxJ5-74" value="&lt;p class=&quot;MsoNormal&quot; style=&quot;margin-bottom: 0cm; border: none;&quot;&gt;&lt;span style=&quot;line-height: 107%;&quot;&gt;&lt;font style=&quot;font-size: 12px;&quot;&gt;Ganancias antes de intereses, impuestos, depreciación y amortización, que es una medida de la rentabilidad operativa de una empresa antes de considerar factores financieros y no monetarios.&lt;/font&gt;&lt;/span&gt;&lt;/p&gt;" style="rounded=1;whiteSpace=wrap;html=1;align=center;strokeColor=#36393d;dashed=1;labelBackgroundColor=none;fillColor=#cce5ff;" vertex="1" parent="1">
          <mxGeometry x="1370" y="542.5" width="170" height="115" as="geometry" />
        </mxCell>
        <mxCell id="3v4U03TZJgixhkDgXxJ5-80" style="edgeStyle=orthogonalEdgeStyle;rounded=0;orthogonalLoop=1;jettySize=auto;html=1;fontColor=light-dark(#000000,#FFFFFF);strokeColor=#36393d;dashed=1;labelBackgroundColor=none;fillColor=#cce5ff;" edge="1" parent="1" source="3v4U03TZJgixhkDgXxJ5-76" target="3v4U03TZJgixhkDgXxJ5-79">
          <mxGeometry relative="1" as="geometry" />
        </mxCell>
        <mxCell id="3v4U03TZJgixhkDgXxJ5-83" style="edgeStyle=orthogonalEdgeStyle;rounded=0;orthogonalLoop=1;jettySize=auto;html=1;fontColor=light-dark(#000000,#FFFFFF);strokeColor=#36393d;dashed=1;labelBackgroundColor=none;fillColor=#cce5ff;" edge="1" parent="1" source="3v4U03TZJgixhkDgXxJ5-76" target="3v4U03TZJgixhkDgXxJ5-82">
          <mxGeometry relative="1" as="geometry" />
        </mxCell>
        <mxCell id="3v4U03TZJgixhkDgXxJ5-76" value="&lt;span style=&quot;text-align: left;&quot;&gt;&lt;font style=&quot;font-size: 12px;&quot;&gt;$$EBITDA = \text{EBIT} + \text{Depreciación} + \text{Amortización}$$&lt;/font&gt;&lt;/span&gt;" style="rounded=1;whiteSpace=wrap;html=1;strokeColor=#36393d;dashed=1;labelBackgroundColor=none;fillColor=#cce5ff;" vertex="1" parent="1">
          <mxGeometry x="1300" y="750" width="310" height="40" as="geometry" />
        </mxCell>
        <mxCell id="3v4U03TZJgixhkDgXxJ5-79" value="&lt;p class=&quot;MsoNormal&quot; style=&quot;margin-bottom:0cm;line-height:normal&quot;&gt;&lt;span style=&quot;font-family: Helvetica, sans-serif;&quot;&gt;&lt;font style=&quot;font-size: 12px;&quot;&gt;Alto indica que la&lt;br&gt;empresa tiene una fuerte capacidad de generación de ingresos operativos antes&lt;br&gt;de considerar costos financieros y contables.&lt;/font&gt;&lt;span style=&quot;font-size: 12pt;&quot;&gt;&lt;/span&gt;&lt;/span&gt;&lt;/p&gt;" style="rounded=1;whiteSpace=wrap;html=1;align=center;strokeColor=#36393d;dashed=1;labelBackgroundColor=none;fillColor=#cce5ff;" vertex="1" parent="1">
          <mxGeometry x="1620" y="610" width="160" height="110" as="geometry" />
        </mxCell>
        <mxCell id="3v4U03TZJgixhkDgXxJ5-82" value="&lt;p class=&quot;MsoNormal&quot; style=&quot;margin-bottom:0cm;line-height:normal&quot;&gt;&lt;span style=&quot;font-family: Helvetica, sans-serif;&quot;&gt;&lt;font style=&quot;font-size: 12px;&quot;&gt;Bajo sugiere que la empresa enfrenta dificultades para generar rentabilidad operativa, lo que puede afectar su capacidad de inversión y crecimiento.&lt;/font&gt;&lt;/span&gt;&lt;/p&gt;" style="rounded=1;whiteSpace=wrap;html=1;align=center;strokeColor=#36393d;dashed=1;labelBackgroundColor=none;fillColor=#cce5ff;" vertex="1" parent="1">
          <mxGeometry x="1625" y="850" width="150" height="110" as="geometry" />
        </mxCell>
        <mxCell id="3v4U03TZJgixhkDgXxJ5-87" style="edgeStyle=orthogonalEdgeStyle;rounded=0;orthogonalLoop=1;jettySize=auto;html=1;fontColor=light-dark(#000000,#FFFFFF);strokeColor=#36393d;dashed=1;labelBackgroundColor=none;fillColor=#cce5ff;" edge="1" parent="1" source="3v4U03TZJgixhkDgXxJ5-84" target="3v4U03TZJgixhkDgXxJ5-86">
          <mxGeometry relative="1" as="geometry" />
        </mxCell>
        <mxCell id="3v4U03TZJgixhkDgXxJ5-84" value="&lt;span style=&quot;line-height: 107%;&quot;&gt;&lt;font style=&quot;font-size: 12px;&quot;&gt;Return on Investment (ROI)&amp;nbsp;&lt;/font&gt;&lt;/span&gt;" style="rounded=1;whiteSpace=wrap;html=1;strokeColor=#36393d;dashed=1;labelBackgroundColor=none;fillColor=#cce5ff;" vertex="1" parent="1">
          <mxGeometry x="-96.5" y="471.25" width="90" height="57.5" as="geometry" />
        </mxCell>
        <mxCell id="3v4U03TZJgixhkDgXxJ5-89" style="edgeStyle=orthogonalEdgeStyle;rounded=0;orthogonalLoop=1;jettySize=auto;html=1;fontColor=light-dark(#000000,#FFFFFF);strokeColor=#36393d;dashed=1;labelBackgroundColor=none;fillColor=#cce5ff;" edge="1" parent="1" source="3v4U03TZJgixhkDgXxJ5-86" target="3v4U03TZJgixhkDgXxJ5-88">
          <mxGeometry relative="1" as="geometry" />
        </mxCell>
        <mxCell id="3v4U03TZJgixhkDgXxJ5-86" value="&lt;p class=&quot;MsoNormal&quot; style=&quot;margin-bottom: 0cm; border: none;&quot;&gt;&lt;span style=&quot;line-height: 107%;&quot;&gt;&lt;font style=&quot;font-size: 12px;&quot;&gt;Retorno de la inversión, que evalúa el rendimiento de&lt;br&gt;una inversión en una empresa.&lt;/font&gt;&lt;/span&gt;&lt;/p&gt;" style="rounded=1;whiteSpace=wrap;html=1;align=center;strokeColor=#36393d;dashed=1;labelBackgroundColor=none;fillColor=#cce5ff;" vertex="1" parent="1">
          <mxGeometry x="-340" y="456.88" width="160" height="88.75" as="geometry" />
        </mxCell>
        <mxCell id="3v4U03TZJgixhkDgXxJ5-91" style="edgeStyle=orthogonalEdgeStyle;rounded=0;orthogonalLoop=1;jettySize=auto;html=1;fontColor=light-dark(#000000,#FFFFFF);strokeColor=#36393d;dashed=1;labelBackgroundColor=none;fillColor=#cce5ff;" edge="1" parent="1" source="3v4U03TZJgixhkDgXxJ5-88" target="3v4U03TZJgixhkDgXxJ5-90">
          <mxGeometry relative="1" as="geometry" />
        </mxCell>
        <mxCell id="3v4U03TZJgixhkDgXxJ5-93" style="edgeStyle=orthogonalEdgeStyle;rounded=0;orthogonalLoop=1;jettySize=auto;html=1;fontColor=light-dark(#000000,#FFFFFF);strokeColor=#36393d;dashed=1;labelBackgroundColor=none;fillColor=#cce5ff;" edge="1" parent="1" source="3v4U03TZJgixhkDgXxJ5-88" target="3v4U03TZJgixhkDgXxJ5-92">
          <mxGeometry relative="1" as="geometry" />
        </mxCell>
        <mxCell id="3v4U03TZJgixhkDgXxJ5-95" style="edgeStyle=orthogonalEdgeStyle;rounded=0;orthogonalLoop=1;jettySize=auto;html=1;fontColor=light-dark(#000000,#FFFFFF);strokeColor=#36393d;dashed=1;labelBackgroundColor=none;fillColor=#cce5ff;" edge="1" parent="1" source="3v4U03TZJgixhkDgXxJ5-88" target="3v4U03TZJgixhkDgXxJ5-94">
          <mxGeometry relative="1" as="geometry" />
        </mxCell>
        <mxCell id="3v4U03TZJgixhkDgXxJ5-88" value="&lt;span style=&quot;text-align: left;&quot;&gt;&lt;font style=&quot;font-size: 12px;&quot;&gt;$$\text{ROI} = \frac{\text{Beneficio Neto}}{\text{Costo de Inversión}} \times 100$$&lt;/font&gt;&lt;/span&gt;" style="rounded=1;whiteSpace=wrap;html=1;strokeColor=#36393d;dashed=1;labelBackgroundColor=none;fillColor=#cce5ff;" vertex="1" parent="1">
          <mxGeometry x="-375" y="650" width="230" height="70" as="geometry" />
        </mxCell>
        <mxCell id="3v4U03TZJgixhkDgXxJ5-90" value="&lt;p class=&quot;MsoNormal&quot; style=&quot;margin-bottom:0cm;line-height:normal&quot;&gt;&lt;span style=&quot;font-family: Helvetica, sans-serif;&quot;&gt;&lt;font style=&quot;font-size: 12px;&quot;&gt;15%-20% suele considerarse positivo en muchas industrias, ya que indica que la inversión está generando buenos retornos en relación con su costo.&lt;/font&gt;&lt;/span&gt;&lt;/p&gt;" style="rounded=1;whiteSpace=wrap;html=1;align=center;strokeColor=#36393d;dashed=1;labelBackgroundColor=none;fillColor=#cce5ff;" vertex="1" parent="1">
          <mxGeometry x="-530" y="800" width="170" height="100" as="geometry" />
        </mxCell>
        <mxCell id="3v4U03TZJgixhkDgXxJ5-92" value="&lt;p class=&quot;MsoNormal&quot; style=&quot;margin-bottom:0cm;line-height:normal&quot;&gt;&lt;span style=&quot;font-family: Helvetica, sans-serif;&quot;&gt;&lt;font style=&quot;font-size: 12px;&quot;&gt;Inferior al 5%-10% puede ser preocupante, ya que sugiere que la inversión no está siendo eficiente en generar beneficios, en sectores con márgenes bajos, como manufactura, puede ser aceptable.&lt;/font&gt;&lt;/span&gt;&lt;/p&gt;" style="rounded=1;whiteSpace=wrap;html=1;align=center;strokeColor=#36393d;dashed=1;labelBackgroundColor=none;fillColor=#cce5ff;" vertex="1" parent="1">
          <mxGeometry x="-345" y="820" width="170" height="120" as="geometry" />
        </mxCell>
        <mxCell id="3v4U03TZJgixhkDgXxJ5-94" value="&lt;p class=&quot;MsoNormal&quot; style=&quot;margin-bottom:0cm;line-height:normal&quot;&gt;&lt;span style=&quot;font-family: Helvetica, sans-serif;&quot;&gt;&lt;font style=&quot;font-size: 12px;&quot;&gt;Un ROI alto en el corto plazo puede ser atractivo, pero es importante considerar la sostenibilidad de la rentabilidad a largo plazo.&lt;/font&gt;&lt;/span&gt;&lt;/p&gt;" style="rounded=1;whiteSpace=wrap;html=1;align=center;strokeColor=#36393d;dashed=1;labelBackgroundColor=none;fillColor=#cce5ff;" vertex="1" parent="1">
          <mxGeometry x="-150" y="802.5" width="150" height="95" as="geometry" />
        </mxCell>
        <mxCell id="3v4U03TZJgixhkDgXxJ5-98" style="edgeStyle=orthogonalEdgeStyle;rounded=0;orthogonalLoop=1;jettySize=auto;html=1;dashed=1;" edge="1" parent="1" source="3v4U03TZJgixhkDgXxJ5-96" target="hzq5pYotCNsqqZJYM5mP-2">
          <mxGeometry relative="1" as="geometry" />
        </mxCell>
        <mxCell id="3v4U03TZJgixhkDgXxJ5-96" value="&lt;font style=&quot;font-size: 14px;&quot;&gt;&lt;b&gt;Solvencia&lt;/b&gt;&lt;/font&gt;" style="rounded=1;whiteSpace=wrap;html=1;strokeColor=#36393d;dashed=1;labelBackgroundColor=none;fillColor=#ffcc99;" vertex="1" parent="1">
          <mxGeometry x="310" y="360" width="120" height="60" as="geometry" />
        </mxCell>
        <mxCell id="3v4U03TZJgixhkDgXxJ5-100" style="edgeStyle=orthogonalEdgeStyle;rounded=0;orthogonalLoop=1;jettySize=auto;html=1;dashed=1;" edge="1" parent="1" source="3v4U03TZJgixhkDgXxJ5-99" target="3v4U03TZJgixhkDgXxJ5-96">
          <mxGeometry relative="1" as="geometry" />
        </mxCell>
        <mxCell id="3v4U03TZJgixhkDgXxJ5-101" style="edgeStyle=orthogonalEdgeStyle;rounded=0;orthogonalLoop=1;jettySize=auto;html=1;dashed=1;" edge="1" parent="1" source="3v4U03TZJgixhkDgXxJ5-99" target="hzq5pYotCNsqqZJYM5mP-1">
          <mxGeometry relative="1" as="geometry" />
        </mxCell>
        <mxCell id="3v4U03TZJgixhkDgXxJ5-103" style="edgeStyle=orthogonalEdgeStyle;rounded=0;orthogonalLoop=1;jettySize=auto;html=1;dashed=1;" edge="1" parent="1" source="3v4U03TZJgixhkDgXxJ5-99" target="3v4U03TZJgixhkDgXxJ5-102">
          <mxGeometry relative="1" as="geometry" />
        </mxCell>
        <mxCell id="3v4U03TZJgixhkDgXxJ5-99" value="&lt;font style=&quot;font-size: 14px;&quot;&gt;&lt;b&gt;Ratios Financieros&lt;/b&gt;&lt;/font&gt;" style="rounded=1;whiteSpace=wrap;html=1;strokeColor=#36393d;dashed=1;labelBackgroundColor=none;fillColor=#eeeeee;" vertex="1" parent="1">
          <mxGeometry x="470" y="360" width="120" height="60" as="geometry" />
        </mxCell>
        <mxCell id="3v4U03TZJgixhkDgXxJ5-105" style="edgeStyle=orthogonalEdgeStyle;rounded=0;orthogonalLoop=1;jettySize=auto;html=1;dashed=1;" edge="1" parent="1" source="3v4U03TZJgixhkDgXxJ5-102" target="3v4U03TZJgixhkDgXxJ5-104">
          <mxGeometry relative="1" as="geometry" />
        </mxCell>
        <mxCell id="3v4U03TZJgixhkDgXxJ5-132" style="edgeStyle=orthogonalEdgeStyle;rounded=0;orthogonalLoop=1;jettySize=auto;html=1;dashed=1;" edge="1" parent="1" source="3v4U03TZJgixhkDgXxJ5-102" target="3v4U03TZJgixhkDgXxJ5-131">
          <mxGeometry relative="1" as="geometry" />
        </mxCell>
        <mxCell id="3v4U03TZJgixhkDgXxJ5-135" style="edgeStyle=orthogonalEdgeStyle;rounded=0;orthogonalLoop=1;jettySize=auto;html=1;dashed=1;" edge="1" parent="1" source="3v4U03TZJgixhkDgXxJ5-102" target="3v4U03TZJgixhkDgXxJ5-134">
          <mxGeometry relative="1" as="geometry" />
        </mxCell>
        <mxCell id="3v4U03TZJgixhkDgXxJ5-102" value="&lt;strong&gt;&lt;/strong&gt;&lt;p&gt;&lt;strong&gt;&lt;font style=&quot;font-size: 14px;&quot;&gt;Liquidez&lt;/font&gt;&lt;/strong&gt;&lt;/p&gt;" style="rounded=1;whiteSpace=wrap;html=1;strokeColor=#36393d;dashed=1;labelBackgroundColor=none;fillColor=#cdeb8b;" vertex="1" parent="1">
          <mxGeometry x="640" y="360" width="120" height="60" as="geometry" />
        </mxCell>
        <mxCell id="3v4U03TZJgixhkDgXxJ5-107" style="edgeStyle=orthogonalEdgeStyle;rounded=0;orthogonalLoop=1;jettySize=auto;html=1;dashed=1;fillColor=#cdeb8b;strokeColor=#36393d;" edge="1" parent="1" source="3v4U03TZJgixhkDgXxJ5-104" target="3v4U03TZJgixhkDgXxJ5-106">
          <mxGeometry relative="1" as="geometry" />
        </mxCell>
        <mxCell id="3v4U03TZJgixhkDgXxJ5-104" value="&lt;span style=&quot;line-height: 107%; font-family: Helvetica, sans-serif;&quot;&gt;&lt;font style=&quot;font-size: 12px;&quot;&gt;Current Ratio&lt;/font&gt;&lt;/span&gt;" style="rounded=1;whiteSpace=wrap;html=1;strokeColor=#36393d;dashed=1;labelBackgroundColor=none;fillColor=#cdeb8b;" vertex="1" parent="1">
          <mxGeometry x="690" y="230" width="100" height="50" as="geometry" />
        </mxCell>
        <mxCell id="3v4U03TZJgixhkDgXxJ5-111" style="edgeStyle=orthogonalEdgeStyle;rounded=0;orthogonalLoop=1;jettySize=auto;html=1;dashed=1;fillColor=#cdeb8b;strokeColor=#36393d;" edge="1" parent="1" source="3v4U03TZJgixhkDgXxJ5-106" target="3v4U03TZJgixhkDgXxJ5-109">
          <mxGeometry relative="1" as="geometry" />
        </mxCell>
        <mxCell id="3v4U03TZJgixhkDgXxJ5-106" value="&lt;span style=&quot;line-height: 107%; font-family: Helvetica, sans-serif;&quot;&gt;&lt;font style=&quot;font-size: 12px;&quot;&gt;Razón corriente, que evalúa la capacidad de la empresa para cubrir sus obligaciones a corto plazo con activos líquidos.&lt;/font&gt;&lt;/span&gt;" style="rounded=1;whiteSpace=wrap;html=1;align=center;strokeColor=#36393d;dashed=1;labelBackgroundColor=none;fillColor=#cdeb8b;" vertex="1" parent="1">
          <mxGeometry x="655.25" y="13.120000000000001" width="169.5" height="82.5" as="geometry" />
        </mxCell>
        <mxCell id="3v4U03TZJgixhkDgXxJ5-113" style="edgeStyle=orthogonalEdgeStyle;rounded=0;orthogonalLoop=1;jettySize=auto;html=1;dashed=1;fillColor=#cdeb8b;strokeColor=#36393d;" edge="1" parent="1" source="3v4U03TZJgixhkDgXxJ5-109" target="3v4U03TZJgixhkDgXxJ5-112">
          <mxGeometry relative="1" as="geometry" />
        </mxCell>
        <mxCell id="3v4U03TZJgixhkDgXxJ5-115" style="edgeStyle=orthogonalEdgeStyle;rounded=0;orthogonalLoop=1;jettySize=auto;html=1;dashed=1;fillColor=#cdeb8b;strokeColor=#36393d;" edge="1" parent="1" source="3v4U03TZJgixhkDgXxJ5-109" target="3v4U03TZJgixhkDgXxJ5-114">
          <mxGeometry relative="1" as="geometry" />
        </mxCell>
        <mxCell id="3v4U03TZJgixhkDgXxJ5-109" value="&lt;span style=&quot;text-align: left;&quot;&gt;$$\text{Razón Corriente} = \frac{\text{Activos Circulantes}}{\text{Pasivos Circulantes}} $$&lt;/span&gt;" style="rounded=1;whiteSpace=wrap;html=1;strokeColor=#36393d;dashed=1;labelBackgroundColor=none;fillColor=#cdeb8b;" vertex="1" parent="1">
          <mxGeometry x="612.5" y="-110" width="255" height="70" as="geometry" />
        </mxCell>
        <mxCell id="3v4U03TZJgixhkDgXxJ5-112" value="&lt;p style=&quot;margin-bottom:0cm;line-height:normal&quot; class=&quot;MsoNormal&quot;&gt;&lt;span style=&quot;font-family: Helvetica, sans-serif;&quot;&gt;&lt;font style=&quot;font-size: 12px;&quot;&gt;Superior a 1 indica que la empresa tiene suficientes activos líquidos para cubrir sus pasivos a corto plazo.&lt;/font&gt;&lt;/span&gt;&lt;/p&gt;" style="rounded=1;whiteSpace=wrap;html=1;align=center;strokeColor=#36393d;dashed=1;labelBackgroundColor=none;fillColor=#cdeb8b;" vertex="1" parent="1">
          <mxGeometry x="542.5" y="-260" width="155" height="72.5" as="geometry" />
        </mxCell>
        <mxCell id="3v4U03TZJgixhkDgXxJ5-114" value="&lt;p style=&quot;margin-bottom:0cm;line-height:normal&quot; class=&quot;MsoNormal&quot;&gt;&lt;span style=&quot;font-family: Helvetica, sans-serif;&quot;&gt;&lt;font style=&quot;font-size: 12px;&quot;&gt;Inferior a 1 sugiere posibles problemas de liquidez, ya que los pasivos superan los activos circulantes.&lt;/font&gt;&lt;/span&gt;&lt;/p&gt;" style="rounded=1;whiteSpace=wrap;html=1;align=center;strokeColor=#36393d;dashed=1;labelBackgroundColor=none;fillColor=#cdeb8b;" vertex="1" parent="1">
          <mxGeometry x="810" y="-260" width="155" height="72.5" as="geometry" />
        </mxCell>
        <mxCell id="3v4U03TZJgixhkDgXxJ5-124" style="edgeStyle=orthogonalEdgeStyle;rounded=0;orthogonalLoop=1;jettySize=auto;html=1;dashed=1;" edge="1" parent="1" source="3v4U03TZJgixhkDgXxJ5-119" target="3v4U03TZJgixhkDgXxJ5-123">
          <mxGeometry relative="1" as="geometry" />
        </mxCell>
        <mxCell id="3v4U03TZJgixhkDgXxJ5-119" value="&lt;span style=&quot;line-height: 107%; font-family: Helvetica, sans-serif;&quot;&gt;&lt;font style=&quot;font-size: 12px;&quot;&gt;Prueba ácida, que mide la capacidad de la empresa para cubrir sus obligaciones a corto plazo con activos líquidos de rápida realización.&lt;/font&gt;&lt;/span&gt;" style="rounded=1;whiteSpace=wrap;html=1;align=center;strokeColor=#36393d;dashed=1;labelBackgroundColor=none;fillColor=#cdeb8b;" vertex="1" parent="1">
          <mxGeometry x="507.5" y="109.99999999999999" width="170" height="83.75" as="geometry" />
        </mxCell>
        <mxCell id="3v4U03TZJgixhkDgXxJ5-126" style="edgeStyle=orthogonalEdgeStyle;rounded=0;orthogonalLoop=1;jettySize=auto;html=1;dashed=1;" edge="1" parent="1" source="3v4U03TZJgixhkDgXxJ5-123" target="3v4U03TZJgixhkDgXxJ5-125">
          <mxGeometry relative="1" as="geometry" />
        </mxCell>
        <mxCell id="3v4U03TZJgixhkDgXxJ5-128" style="edgeStyle=orthogonalEdgeStyle;rounded=0;orthogonalLoop=1;jettySize=auto;html=1;dashed=1;" edge="1" parent="1" source="3v4U03TZJgixhkDgXxJ5-123" target="3v4U03TZJgixhkDgXxJ5-127">
          <mxGeometry relative="1" as="geometry" />
        </mxCell>
        <mxCell id="3v4U03TZJgixhkDgXxJ5-123" value="&lt;span style=&quot;text-align: left;&quot;&gt;$$\text{Quick Ratio} = \frac{\text{Efectivo} +\text{Equivalentes de Efectivo}+ \text{Valores Negociables}+ \text{Cuentas por Cobrar}}{\text{Pasivos Circulantes}} $$&lt;/span&gt;" style="rounded=1;whiteSpace=wrap;html=1;strokeColor=#36393d;dashed=1;labelBackgroundColor=none;fillColor=#cdeb8b;" vertex="1" parent="1">
          <mxGeometry x="140" y="-440" width="620" height="100" as="geometry" />
        </mxCell>
        <mxCell id="3v4U03TZJgixhkDgXxJ5-125" value="&lt;p style=&quot;margin-bottom:0cm;line-height:normal&quot; class=&quot;MsoNormal&quot;&gt;&lt;span style=&quot;font-family: Helvetica, sans-serif;&quot;&gt;&lt;font style=&quot;font-size: 12px;&quot;&gt;Superior a 1 indica que la empresa tiene suficientes activos líquidos para cubrir sus pasivos a corto plazo.&lt;/font&gt;&lt;/span&gt;&lt;/p&gt;" style="rounded=1;whiteSpace=wrap;html=1;align=center;strokeColor=#36393d;dashed=1;labelBackgroundColor=none;fillColor=#cdeb8b;" vertex="1" parent="1">
          <mxGeometry x="-60" y="-426.25" width="155" height="72.5" as="geometry" />
        </mxCell>
        <mxCell id="3v4U03TZJgixhkDgXxJ5-127" value="&lt;p style=&quot;margin-bottom:0cm;line-height:normal&quot; class=&quot;MsoNormal&quot;&gt;&lt;span style=&quot;font-family: Helvetica, sans-serif;&quot;&gt;&lt;font style=&quot;font-size: 12px;&quot;&gt;Inferior a 1 sugiere posibles problemas de liquidez, ya que la empresa podría tener dificultades para cumplir con sus obligaciones sin vender activos menos líquidos.&lt;/font&gt;&lt;/span&gt;&lt;/p&gt;" style="rounded=1;whiteSpace=wrap;html=1;align=center;strokeColor=#36393d;dashed=1;labelBackgroundColor=none;fillColor=#cdeb8b;" vertex="1" parent="1">
          <mxGeometry x="824.75" y="-442.5" width="160" height="105" as="geometry" />
        </mxCell>
        <mxCell id="3v4U03TZJgixhkDgXxJ5-133" style="edgeStyle=orthogonalEdgeStyle;rounded=0;orthogonalLoop=1;jettySize=auto;html=1;dashed=1;fillColor=#cdeb8b;strokeColor=#36393d;" edge="1" parent="1" source="3v4U03TZJgixhkDgXxJ5-131" target="3v4U03TZJgixhkDgXxJ5-119">
          <mxGeometry relative="1" as="geometry" />
        </mxCell>
        <mxCell id="3v4U03TZJgixhkDgXxJ5-131" value="&lt;span style=&quot;font-family: Helvetica, sans-serif;&quot;&gt;Quick Ratio&lt;/span&gt;" style="rounded=1;whiteSpace=wrap;html=1;strokeColor=#36393d;dashed=1;labelBackgroundColor=none;fillColor=#cdeb8b;" vertex="1" parent="1">
          <mxGeometry x="542.5" y="230" width="100" height="50" as="geometry" />
        </mxCell>
        <mxCell id="3v4U03TZJgixhkDgXxJ5-137" style="edgeStyle=orthogonalEdgeStyle;rounded=0;orthogonalLoop=1;jettySize=auto;html=1;dashed=1;" edge="1" parent="1" source="3v4U03TZJgixhkDgXxJ5-134" target="3v4U03TZJgixhkDgXxJ5-136">
          <mxGeometry relative="1" as="geometry" />
        </mxCell>
        <mxCell id="3v4U03TZJgixhkDgXxJ5-134" value="&lt;span style=&quot;line-height: 107%; font-family: Helvetica, sans-serif;&quot;&gt;&lt;font style=&quot;font-size: 12px;&quot;&gt;Working Capital Ratio&lt;/font&gt;&lt;/span&gt;" style="rounded=1;whiteSpace=wrap;html=1;strokeColor=#36393d;dashed=1;labelBackgroundColor=none;fillColor=#cdeb8b;" vertex="1" parent="1">
          <mxGeometry x="880" y="370" width="90" height="40" as="geometry" />
        </mxCell>
        <mxCell id="3v4U03TZJgixhkDgXxJ5-140" style="edgeStyle=orthogonalEdgeStyle;rounded=0;orthogonalLoop=1;jettySize=auto;html=1;dashed=1;fillColor=#cdeb8b;strokeColor=#36393d;" edge="1" parent="1" source="3v4U03TZJgixhkDgXxJ5-136" target="3v4U03TZJgixhkDgXxJ5-139">
          <mxGeometry relative="1" as="geometry" />
        </mxCell>
        <mxCell id="3v4U03TZJgixhkDgXxJ5-136" value="&lt;span style=&quot;line-height: 107%; font-family: Helvetica, sans-serif;&quot;&gt;&lt;font style=&quot;font-size: 12px;&quot;&gt;Relación de capital de trabajo, que evalúa la capacidad de la empresa para cubrir sus obligaciones a corto plazo&lt;/font&gt;&lt;/span&gt;" style="rounded=1;whiteSpace=wrap;html=1;align=center;strokeColor=#36393d;dashed=1;labelBackgroundColor=none;fillColor=#cdeb8b;" vertex="1" parent="1">
          <mxGeometry x="840.5" y="243.75" width="169.5" height="82.5" as="geometry" />
        </mxCell>
        <mxCell id="3v4U03TZJgixhkDgXxJ5-142" style="edgeStyle=orthogonalEdgeStyle;rounded=0;orthogonalLoop=1;jettySize=auto;html=1;dashed=1;fillColor=#cdeb8b;strokeColor=#36393d;" edge="1" parent="1" source="3v4U03TZJgixhkDgXxJ5-139" target="3v4U03TZJgixhkDgXxJ5-141">
          <mxGeometry relative="1" as="geometry" />
        </mxCell>
        <mxCell id="3v4U03TZJgixhkDgXxJ5-144" style="edgeStyle=orthogonalEdgeStyle;rounded=0;orthogonalLoop=1;jettySize=auto;html=1;dashed=1;fillColor=#cdeb8b;strokeColor=#36393d;" edge="1" parent="1" source="3v4U03TZJgixhkDgXxJ5-139" target="3v4U03TZJgixhkDgXxJ5-143">
          <mxGeometry relative="1" as="geometry" />
        </mxCell>
        <mxCell id="3v4U03TZJgixhkDgXxJ5-139" value="&lt;span style=&quot;text-align: left;&quot;&gt;$$\text{Working Capital Ratio} = \text{Activos Circulantes}-\text{Pasivos Circulantes} $$&lt;/span&gt;" style="rounded=1;whiteSpace=wrap;html=1;strokeColor=#36393d;dashed=1;labelBackgroundColor=none;fillColor=#cdeb8b;" vertex="1" parent="1">
          <mxGeometry x="810" y="130" width="430" height="72.5" as="geometry" />
        </mxCell>
        <mxCell id="3v4U03TZJgixhkDgXxJ5-141" value="&lt;p style=&quot;margin-bottom:0cm;line-height:normal&quot; class=&quot;MsoNormal&quot;&gt;&lt;span style=&quot;font-family: Helvetica, sans-serif;&quot;&gt;&lt;font style=&quot;font-size: 12px;&quot;&gt;Positivo: Indica que la empresa tiene más activos circulantes que pasivos circulantes, lo que significa que puede cubrir sus obligaciones a corto plazo y aún tener recursos disponibles para operar.&lt;/font&gt;&lt;/span&gt;&lt;/p&gt;" style="rounded=1;whiteSpace=wrap;html=1;align=center;strokeColor=#36393d;dashed=1;labelBackgroundColor=none;fillColor=#cdeb8b;" vertex="1" parent="1">
          <mxGeometry x="875" y="-22.5" width="180" height="106.88" as="geometry" />
        </mxCell>
        <mxCell id="3v4U03TZJgixhkDgXxJ5-143" value="&lt;p style=&quot;margin-bottom:0cm;line-height:normal&quot; class=&quot;MsoNormal&quot;&gt;&lt;span style=&quot;font-family: Helvetica, sans-serif;&quot;&gt;&lt;font style=&quot;font-size: 12px;&quot;&gt;Negativo: Sugiere que la empresa podría enfrentar dificultades para pagar sus deudas a corto plazo, lo que puede afectar su estabilidad financiera.&lt;/font&gt;&lt;/span&gt;&lt;/p&gt;" style="rounded=1;whiteSpace=wrap;html=1;align=center;strokeColor=#36393d;dashed=1;labelBackgroundColor=none;fillColor=#cdeb8b;" vertex="1" parent="1">
          <mxGeometry x="1070" y="-19.06" width="160" height="100" as="geometry" />
        </mxCell>
      </root>
    </mxGraphModel>
  </diagram>
</mxfile>
